<svg width="16" height="16" viewBox="0 0 16 16" fill="none" xmlns="http://www.w3.org/2000/svg">
<path d="M7.16665 3.99996H11.3333C11.8435 3.99993 12.3343 4.19484 12.7055 4.54482C13.0767 4.89479 13.3001 5.37336 13.33 5.88263L13.3333 5.99996V6.66663L14 6.67863C14.1629 6.67857 14.3201 6.73815 14.4421 6.84611C14.5641 6.95407 14.6423 7.10294 14.662 7.26463L14.6673 7.34463V8.67796C14.6675 8.83941 14.609 8.99544 14.5029 9.11707C14.3967 9.2387 14.25 9.31766 14.09 9.33929L14.0006 9.34529L13.3333 9.33329V9.99996C13.3333 10.5101 13.1384 11.001 12.7885 11.3721C12.4385 11.7433 11.9599 11.9667 11.4506 11.9966L11.3333 12H5.33198C5.2053 11.9999 5.08335 11.9518 4.99079 11.8653C4.89822 11.7788 4.84193 11.6604 4.8333 11.534C4.82466 11.4077 4.86432 11.2827 4.94427 11.1844C5.02421 11.0862 5.13848 11.0219 5.26398 11.0046L5.33198 11H11.3333C11.5818 11 11.8214 10.9075 12.0054 10.7405C12.1894 10.5735 12.3046 10.3439 12.3286 10.0966L12.3333 9.99996V5.99996C12.3333 5.75148 12.2408 5.51189 12.0738 5.32789C11.9068 5.14389 11.6773 5.02865 11.43 5.00463L11.3333 4.99996H7.16665C7.03996 4.99992 6.91802 4.9518 6.82545 4.86531C6.73289 4.77883 6.6766 4.66043 6.66796 4.53404C6.65933 4.40765 6.69899 4.2827 6.77893 4.18443C6.85888 4.08616 6.97315 4.02189 7.09865 4.00463L7.16665 3.99996ZM4.16731 7.33196V11.5C4.16613 11.6259 4.11751 11.7467 4.03114 11.8383C3.94478 11.9299 3.82704 11.9855 3.70144 11.9941C3.57583 12.0027 3.45162 11.9636 3.35359 11.8846C3.25556 11.8056 3.19095 11.6925 3.17265 11.568L3.16798 11.5V7.33196H2.49998C2.19068 7.33196 1.89403 7.20913 1.67526 6.99049C1.45648 6.77184 1.33349 6.47526 1.33331 6.16596V4.49996C1.33331 4.36735 1.38599 4.24017 1.47976 4.14641C1.57353 4.05264 1.7007 3.99996 1.83331 3.99996H2.33398V3.16663C2.33398 3.0458 2.37774 2.92907 2.45716 2.83801C2.53657 2.74695 2.64628 2.68773 2.76598 2.67129L2.83398 2.66663C2.9548 2.66663 3.07154 2.71039 3.1626 2.7898C3.25366 2.86922 3.31288 2.97892 3.32931 3.09863L3.33398 3.16663V3.99996H3.99731V3.16663C3.99736 3.0456 4.04131 2.9287 4.12099 2.83761C4.20068 2.74652 4.3107 2.68743 4.43065 2.67129L4.49731 2.66663C4.61825 2.66647 4.73515 2.71015 4.82635 2.78959C4.91755 2.86902 4.97687 2.97881 4.99331 3.09863L4.99798 3.16663L4.99731 3.99996H5.50265C5.63525 3.99996 5.76243 4.05264 5.8562 4.14641C5.94997 4.24017 6.00265 4.36735 6.00265 4.49996V6.16596C6.00265 6.47538 5.87973 6.77213 5.66094 6.99092C5.44215 7.20971 5.1454 7.33263 4.83598 7.33263L4.16731 7.33196ZM5.00265 4.99996H2.33331V6.16596C2.33331 6.25796 2.40798 6.33263 2.49998 6.33263H4.83598C4.88018 6.33263 4.92257 6.31507 4.95383 6.28381C4.98509 6.25255 5.00265 6.21016 5.00265 6.16596V4.99996Z" fill="black"/>
<rect x="0.5" y="0.5" width="15" height="15" stroke="black"/>
</svg>
