<svg width="100" height="100" viewBox="0 0 100 100" fill="none" xmlns="http://www.w3.org/2000/svg">
<rect width="100" height="100" rx="5" fill="white"/>
<path d="M50 9.375C41.2053 9.38052 32.7725 12.8766 26.5537 19.0954C20.3349 25.3141 16.8388 33.747 16.8333 42.5417C16.8333 55.5 25.0208 67.3333 33.0833 75.875C37.9696 81.1058 43.3643 85.8374 49.1875 90L50 90.5625L50.8125 90C56.6357 85.8374 62.0303 81.1058 66.9166 75.875C74.9791 67.25 83.1666 55.4375 83.1666 42.5417C83.1611 33.747 79.665 25.3141 73.4463 19.0954C67.2275 12.8766 58.7946 9.38052 50 9.375Z" stroke="#CE111E" stroke-width="2.08333" stroke-linecap="round" stroke-linejoin="round"/>
<path d="M65.4375 49.9583C70.0168 49.9583 73.7291 46.246 73.7291 41.6667C73.7291 37.0873 70.0168 33.375 65.4375 33.375C60.8581 33.375 57.1458 37.0873 57.1458 41.6667C57.1458 46.246 60.8581 49.9583 65.4375 49.9583Z" stroke="#CE111E" stroke-width="2.08333" stroke-linecap="round" stroke-linejoin="round"/>
<path d="M34.6667 49.9583C39.246 49.9583 42.9583 46.246 42.9583 41.6667C42.9583 37.0873 39.246 33.375 34.6667 33.375C30.0873 33.375 26.375 37.0873 26.375 41.6667C26.375 46.246 30.0873 49.9583 34.6667 49.9583Z" stroke="#CE111E" stroke-width="2.08333" stroke-linecap="round" stroke-linejoin="round"/>
<path d="M60.6667 27.2083L49.4167 41.6666H34.6667L45.9584 27.2083H60.6667Z" stroke="#CE111E" stroke-width="2.08333" stroke-linecap="round" stroke-linejoin="round"/>
<path d="M65.4375 41.6666L58.8959 21.8333H54.0833M44.875 22.625L49.4167 41.6666M41.9375 22.625H48.0625M20.5417 57.8541H79.4583" stroke="#CE111E" stroke-width="2.08333" stroke-linecap="round" stroke-linejoin="round"/>
</svg>
