<svg width="70" height="85" viewBox="0 0 70 85" fill="none" xmlns="http://www.w3.org/2000/svg">
<path d="M35.1667 2C26.372 2.00552 17.9391 5.50163 11.7204 11.7204C5.50163 17.9391 2.00552 26.372 2 35.1667C2 48.125 10.1875 59.9583 18.25 68.5C23.1363 73.7308 28.5309 78.4624 34.3542 82.625L35.1667 83.1875L35.9792 82.625C41.8024 78.4624 47.197 73.7308 52.0833 68.5C60.1458 59.875 68.3333 48.0625 68.3333 35.1667C68.3278 26.372 64.8317 17.9391 58.6129 11.7204C52.3942 5.50163 43.9613 2.00552 35.1667 2Z" fill="#CE111E" stroke="white" stroke-width="2.08333" stroke-linecap="round" stroke-linejoin="round"/>
<path d="M50.6042 42.5833C55.1835 42.5833 58.8958 38.871 58.8958 34.2917C58.8958 29.7123 55.1835 26 50.6042 26C46.0248 26 42.3125 29.7123 42.3125 34.2917C42.3125 38.871 46.0248 42.5833 50.6042 42.5833Z" fill="#CE111E" stroke="white" stroke-width="2.08333" stroke-linecap="round" stroke-linejoin="round"/>
<path d="M19.8334 42.5833C24.4127 42.5833 28.125 38.871 28.125 34.2917C28.125 29.7123 24.4127 26 19.8334 26C15.254 26 11.5417 29.7123 11.5417 34.2917C11.5417 38.871 15.254 42.5833 19.8334 42.5833Z" fill="#CE111E" stroke="white" stroke-width="2.08333" stroke-linecap="round" stroke-linejoin="round"/>
<path d="M45.8334 19.8333L34.5834 34.2916H19.8334L31.125 19.8333H45.8334Z" fill="#CE111E" stroke="white" stroke-width="2.08333" stroke-linecap="round" stroke-linejoin="round"/>
<path d="M50.6042 34.2916L44.0625 14.4583H39.25M30.0417 15.25L34.5834 34.2916ZM27.1042 15.25H33.2292ZM5.70837 50.4791H64.625Z" fill="#CE111E"/>
<path d="M50.6042 34.2916L44.0625 14.4583H39.25M30.0417 15.25L34.5834 34.2916M27.1042 15.25H33.2292M5.70837 50.4791H64.625" stroke="white" stroke-width="2.08333" stroke-linecap="round" stroke-linejoin="round"/>
</svg>
